<?xml version="1.0" encoding="UTF-8"?>
<svg xmlns="http://www.w3.org/2000/svg" xmlns:xlink="http://www.w3.org/1999/xlink" width="4200pt" height="1400pt" viewBox="0 0 4200 1400" version="1.1">
<g id="surface2">
<rect x="0" y="0" width="4200" height="1400" style="fill:rgb(4.313725%,14.509804%,27.058824%);fill-opacity:1;stroke:none;"/>
<path style=" stroke:none;fill-rule:nonzero;fill:rgb(100%,100%,100%);fill-opacity:1;" d="M 275.511719 546.699219 L 557.699219 546.699219 L 557.699219 606.386719 L 456.183594 606.386719 L 456.183594 852.886719 L 377.230469 852.886719 L 377.230469 606.386719 L 275.511719 606.386719 Z M 598.523438 546.699219 L 677.476562 546.699219 L 677.476562 730.246094 C 677.476562 755.539062 681.609375 773.621094 689.882812 784.496094 C 698.152344 795.363281 711.652344 800.792969 730.382812 800.792969 C 749.246094 800.792969 762.8125 795.363281 771.085938 784.496094 C 779.355469 773.621094 783.492188 755.539062 783.492188 730.246094 L 783.492188 546.699219 L 862.445312 546.699219 L 862.445312 730.246094 C 862.445312 773.589844 851.574219 805.863281 829.835938 827.058594 C 808.105469 848.246094 774.953125 858.839844 730.382812 858.839844 C 685.945312 858.839844 652.855469 848.246094 631.117188 827.058594 C 609.386719 805.863281 598.523438 773.589844 598.523438 730.246094 Z M 901.003906 852.886719 "/>
<path style=" stroke:none;fill-rule:nonzero;fill:rgb(0%,70.588235%,92.156863%);fill-opacity:1;" d="M 939.566406 546.699219 L 1152.628906 546.699219 L 1152.628906 606.386719 L 1018.519531 606.386719 L 1018.519531 663.386719 L 1144.644531 663.386719 L 1144.644531 723.074219 L 1018.519531 723.074219 L 1018.519531 852.886719 L 939.566406 852.886719 Z M 1187.90625 852.886719 "/>
<path style=" stroke:none;fill-rule:nonzero;fill:rgb(16.862745%,85.098039%,76.862745%);fill-opacity:1;" d="M 1412.265625 797.105469 L 1288.8125 797.105469 L 1269.328125 852.886719 L 1189.953125 852.886719 L 1303.359375 546.699219 L 1397.5 546.699219 L 1510.90625 852.886719 L 1431.546875 852.886719 Z M 1308.5 740.292969 L 1392.375 740.292969 L 1350.53125 618.480469 Z M 1663.6875 682.464844 C 1680.226562 682.464844 1692.085938 679.394531 1699.265625 673.246094 C 1706.441406 667.089844 1710.03125 656.972656 1710.03125 642.886719 C 1710.03125 628.941406 1706.441406 618.960938 1699.265625 612.949219 C 1692.085938 606.929688 1680.226562 603.917969 1663.6875 603.917969 L 1630.46875 603.917969 L 1630.46875 682.464844 Z M 1630.46875 737.011719 L 1630.46875 852.886719 L 1551.515625 852.886719 L 1551.515625 546.699219 L 1672.09375 546.699219 C 1712.425781 546.699219 1741.988281 553.472656 1760.78125 567.011719 C 1779.582031 580.542969 1788.984375 601.941406 1788.984375 631.199219 C 1788.984375 651.429688 1784.09375 668.039062 1774.3125 681.027344 C 1764.539062 694.019531 1749.8125 703.589844 1730.125 709.746094 C 1740.925781 712.207031 1750.597656 717.777344 1759.140625 726.464844 C 1767.691406 735.144531 1776.34375 748.300781 1785.09375 765.933594 L 1827.953125 852.886719 L 1743.875 852.886719 L 1706.546875 776.808594 C 1699.023438 761.496094 1691.398438 751.039062 1683.671875 745.433594 C 1675.953125 739.820312 1665.664062 737.011719 1652.8125 737.011719 Z M 1874.925781 546.699219 L 1975.410156 546.699219 L 2045.128906 710.558594 L 2115.269531 546.699219 L 2215.550781 546.699219 L 2215.550781 852.886719 L 2140.910156 852.886719 L 2140.910156 628.933594 L 2070.363281 794.027344 L 2020.316406 794.027344 L 1949.769531 628.933594 L 1949.769531 852.886719 L 1874.925781 852.886719 Z M 2478.671875 797.105469 L 2355.21875 797.105469 L 2335.734375 852.886719 L 2256.359375 852.886719 L 2369.765625 546.699219 L 2463.90625 546.699219 L 2577.3125 852.886719 L 2497.953125 852.886719 Z M 2374.90625 740.292969 L 2458.78125 740.292969 L 2416.9375 618.480469 Z M 2860.734375 836.074219 C 2846.234375 843.597656 2831.125 849.269531 2815.40625 853.089844 C 2799.6875 856.921875 2783.28125 858.839844 2766.1875 858.839844 C 2715.1875 858.839844 2674.785156 844.585938 2644.984375 816.074219 C 2615.179688 787.566406 2600.28125 748.910156 2600.28125 700.105469 C 2600.28125 651.160156 2615.179688 612.433594 2644.984375 583.933594 C 2674.785156 555.425781 2715.1875 541.167969 2766.1875 541.167969 C 2783.28125 541.167969 2799.6875 543.085938 2815.40625 546.917969 C 2831.125 550.742188 2846.234375 556.414062 2860.734375 563.933594 L 2860.734375 627.292969 C 2846.097656 617.316406 2831.671875 610.003906 2817.453125 605.355469 C 2803.234375 600.710938 2788.265625 598.386719 2772.546875 598.386719 C 2744.378906 598.386719 2722.226562 607.414062 2706.09375 625.464844 C 2689.96875 643.507812 2681.90625 668.386719 2681.90625 700.105469 C 2681.90625 731.691406 2689.96875 756.507812 2706.09375 774.558594 C 2722.226562 792.601562 2744.378906 801.621094 2772.546875 801.621094 C 2788.265625 801.621094 2803.234375 799.300781 2817.453125 794.652344 C 2831.671875 789.996094 2846.097656 782.679688 2860.734375 772.699219 Z M 2887.59375 852.886719 "/>
<path style=" stroke:none;fill-rule:nonzero;fill:rgb(0%,70.588235%,92.156863%);fill-opacity:1;" d="M 2926.15625 546.699219 L 3005.109375 546.699219 L 3005.109375 852.886719 L 2926.15625 852.886719 Z M 3268.222656 797.105469 L 3144.769531 797.105469 L 3125.285156 852.886719 L 3045.910156 852.886719 L 3159.316406 546.699219 L 3253.457031 546.699219 L 3366.863281 852.886719 L 3287.503906 852.886719 Z M 3164.457031 740.292969 L 3248.332031 740.292969 L 3206.488281 618.480469 Z M 3368.914062 852.886719 "/>
<path style="fill:none;stroke-width:5;stroke-linecap:butt;stroke-linejoin:miter;stroke:rgb(100%,100%,100%);stroke-opacity:1;stroke-miterlimit:10;" d="M 3858.171875 700 C 3858.171875 799.410156 3777.585938 880 3678.171875 880 C 3578.761719 880 3498.171875 799.410156 3498.171875 700 C 3498.171875 600.589844 3578.761719 520 3678.171875 520 C 3777.585938 520 3858.171875 600.589844 3858.171875 700 "/>
<path style="fill:none;stroke-width:4;stroke-linecap:butt;stroke-linejoin:miter;stroke:rgb(100%,100%,100%);stroke-opacity:1;stroke-miterlimit:10;" d="M 3498.171875 700 L 3858.171875 700 M 3678.171875 520 L 3678.171875 880 "/>
<path style="fill:none;stroke-width:3.5;stroke-linecap:butt;stroke-linejoin:miter;stroke:rgb(100%,100%,100%);stroke-opacity:1;stroke-miterlimit:10;" d="M 3520.265625 786.398438 C 3599.21875 746.800781 3757.128906 746.800781 3836.082031 786.398438 "/>
<path style="fill:none;stroke-width:3.5;stroke-linecap:butt;stroke-linejoin:miter;stroke:rgb(100%,100%,100%);stroke-opacity:1;stroke-miterlimit:10;" d="M 3520.265625 613.601562 C 3599.21875 653.199219 3757.128906 653.199219 3836.082031 613.601562 "/>
<path style="fill:none;stroke-width:3.5;stroke-linecap:butt;stroke-linejoin:miter;stroke:rgb(100%,100%,100%);stroke-opacity:1;stroke-miterlimit:10;" d="M 3678.171875 520 C 3732.851562 520 3777.171875 600.589844 3777.171875 700 C 3777.171875 799.410156 3732.851562 880 3678.171875 880 "/>
<path style="fill:none;stroke-width:3.5;stroke-linecap:butt;stroke-linejoin:miter;stroke:rgb(100%,100%,100%);stroke-opacity:1;stroke-miterlimit:10;" d="M 3678.171875 520 C 3732.851562 520 3777.171875 600.589844 3777.171875 700 C 3777.171875 799.410156 3732.851562 880 3678.171875 880 "/>
<path style="fill-rule:nonzero;fill:rgb(100%,100%,100%);fill-opacity:1;stroke-width:0.8;stroke-linecap:butt;stroke-linejoin:miter;stroke:rgb(100%,100%,100%);stroke-opacity:1;stroke-miterlimit:10;" d="M 3678.171875 700 L 3548.882812 451.636719 L 3678.171875 515 Z M 3678.171875 700 "/>
<path style="fill-rule:nonzero;fill:rgb(100%,100%,100%);fill-opacity:0.72;stroke-width:0.8;stroke-linecap:butt;stroke-linejoin:miter;stroke:rgb(100%,100%,100%);stroke-opacity:0.72;stroke-miterlimit:10;" d="M 3678.171875 700 L 3678.171875 515 L 3807.464844 451.636719 Z M 3678.171875 700 "/>
<path style="fill-rule:nonzero;fill:rgb(100%,100%,100%);fill-opacity:1;stroke-width:0.8;stroke-linecap:butt;stroke-linejoin:miter;stroke:rgb(100%,100%,100%);stroke-opacity:1;stroke-miterlimit:10;" d="M 3678.171875 700 L 3548.882812 948.363281 L 3678.171875 885 Z M 3678.171875 700 "/>
<path style="fill-rule:nonzero;fill:rgb(100%,100%,100%);fill-opacity:0.72;stroke-width:0.8;stroke-linecap:butt;stroke-linejoin:miter;stroke:rgb(100%,100%,100%);stroke-opacity:0.72;stroke-miterlimit:10;" d="M 3678.171875 700 L 3678.171875 885 L 3807.464844 948.363281 Z M 3678.171875 700 "/>
<path style="fill-rule:nonzero;fill:rgb(100%,100%,100%);fill-opacity:1;stroke-width:0.8;stroke-linecap:butt;stroke-linejoin:miter;stroke:rgb(100%,100%,100%);stroke-opacity:1;stroke-miterlimit:10;" d="M 3678.171875 700 L 3429.8125 570.710938 L 3493.171875 700 Z M 3678.171875 700 "/>
<path style="fill-rule:nonzero;fill:rgb(100%,100%,100%);fill-opacity:0.72;stroke-width:0.8;stroke-linecap:butt;stroke-linejoin:miter;stroke:rgb(100%,100%,100%);stroke-opacity:0.72;stroke-miterlimit:10;" d="M 3678.171875 700 L 3493.171875 700 L 3429.8125 829.289062 Z M 3678.171875 700 "/>
<path style="fill-rule:nonzero;fill:rgb(100%,100%,100%);fill-opacity:1;stroke-width:0.8;stroke-linecap:butt;stroke-linejoin:miter;stroke:rgb(100%,100%,100%);stroke-opacity:1;stroke-miterlimit:10;" d="M 3678.171875 700 L 3926.535156 570.710938 L 3863.171875 700 Z M 3678.171875 700 "/>
<path style="fill-rule:nonzero;fill:rgb(100%,100%,100%);fill-opacity:0.72;stroke-width:0.8;stroke-linecap:butt;stroke-linejoin:miter;stroke:rgb(100%,100%,100%);stroke-opacity:0.72;stroke-miterlimit:10;" d="M 3678.171875 700 L 3863.171875 700 L 3926.535156 829.289062 Z M 3678.171875 700 "/>
</g>
</svg>
